<?xml version="1.0" encoding="UTF-8" standalone="no"?>
<!DOCTYPE svg PUBLIC "-//W3C//DTD SVG 1.0//EN" "http://www.w3.org/TR/2001/PR-SVG-20010719/DTD/svg10.dtd">
<svg width="29cm" height="17cm" viewBox="123 82 576 337" xmlns="http://www.w3.org/2000/svg" xmlns:xlink="http://www.w3.org/1999/xlink">
  <g>
    <ellipse style="fill: #008cc2" cx="285.92" cy="155.615" rx="37.7325" ry="37.7325"/>
    <ellipse style="fill: none; fill-opacity:0; stroke-width: 2; stroke: #207596" cx="285.92" cy="155.615" rx="37.7325" ry="37.7325"/>
    <text font-size="12.8" style="fill: #ffffff;text-anchor:middle;font-family:sans-serif;font-style:normal;font-weight:normal" x="285.92" y="159.614">
      <tspan x="285.92" y="159.614">Commune</tspan>
    </text>
  </g>
  <g>
    <ellipse style="fill: #4482b4" cx="340.766" cy="328.734" rx="20.75" ry="20.75"/>
    <ellipse style="fill: none; fill-opacity:0; stroke-width: 2; stroke: #2c5270" cx="340.766" cy="328.734" rx="20.75" ry="20.75"/>
    <text font-size="12.8" style="fill: #ffffff;text-anchor:middle;font-family:sans-serif;font-style:normal;font-weight:normal" x="340.766" y="332.734">
      <tspan x="340.766" y="332.734">Voie</tspan>
    </text>
  </g>
  <g>
    <ellipse style="fill: #9979bc" cx="405.667" cy="353.78" rx="11" ry="11"/>
    <ellipse style="fill: none; fill-opacity:0; stroke-width: 2; stroke: #663999" cx="405.667" cy="353.78" rx="11" ry="11"/>
    <text font-size="12.8" style="fill: #ffffff;text-anchor:middle;font-family:sans-serif;font-style:normal;font-weight:normal" x="405.667" y="357.78">
      <tspan x="405.667" y="357.78">N</tspan>
    </text>
  </g>
  <g>
    <line style="fill: none; fill-opacity:0; stroke-width: 2; stroke: #008cc2" x1="297.61" y1="192.512" x2="331.258" y2="298.721"/>
    <polygon style="fill: #008cc2" points="333.523,305.871 325.736,297.848 331.258,298.721 335.269,294.828 "/>
    <polygon style="fill: none; fill-opacity:0; stroke-width: 2; stroke: #008cc2" points="333.523,305.871 325.736,297.848 331.258,298.721 335.269,294.828 "/>
  </g>
  <g>
    <line style="fill: none; fill-opacity:0; stroke-width: 2; stroke: #2c5270" x1="361.055" y1="336.564" x2="385.389" y2="345.955"/>
    <polygon style="fill: #2c5270" points="392.386,348.655 381.257,349.719 385.389,345.955 384.857,340.39 "/>
    <polygon style="fill: none; fill-opacity:0; stroke-width: 2; stroke: #2c5270" points="392.386,348.655 381.257,349.719 385.389,345.955 384.857,340.39 "/>
  </g>
  <g>
    <line style="fill: none; fill-opacity:0; stroke-width: 2; stroke: #008cc2" x1="260.61" y1="184.927" x2="211.847" y2="241.401"/>
    <polygon style="fill: #008cc2" points="206.945,247.078 209.696,236.241 211.847,241.401 217.265,242.777 "/>
    <polygon style="fill: none; fill-opacity:0; stroke-width: 2; stroke: #008cc2" points="206.945,247.078 209.696,236.241 211.847,241.401 217.265,242.777 "/>
  </g>
  <g>
    <ellipse style="fill: #9979bc" cx="379.5" cy="386.915" rx="11" ry="11"/>
    <ellipse style="fill: none; fill-opacity:0; stroke-width: 2; stroke: #663999" cx="379.5" cy="386.915" rx="11" ry="11"/>
    <text font-size="12.8" style="fill: #ffffff;text-anchor:middle;font-family:sans-serif;font-style:normal;font-weight:normal" x="379.5" y="390.915">
      <tspan x="379.5" y="390.915">N</tspan>
    </text>
  </g>
  <g>
    <line style="fill: none; fill-opacity:0; stroke-width: 2; stroke: #2c5270" x1="352.818" y1="346.837" x2="367.75" y2="369.265"/>
    <polygon style="fill: #2c5270" points="371.906,375.508 362.202,369.955 367.75,369.265 370.526,364.414 "/>
    <polygon style="fill: none; fill-opacity:0; stroke-width: 2; stroke: #2c5270" points="371.906,375.508 362.202,369.955 367.75,369.265 370.526,364.414 "/>
  </g>
  <g>
    <ellipse style="fill: #9979bc" cx="332.4" cy="397.815" rx="11" ry="11"/>
    <ellipse style="fill: none; fill-opacity:0; stroke-width: 2; stroke: #663999" cx="332.4" cy="397.815" rx="11" ry="11"/>
    <text font-size="12.8" style="fill: #ffffff;text-anchor:middle;font-family:sans-serif;font-style:normal;font-weight:normal" x="332.4" y="401.815">
      <tspan x="332.4" y="401.815">N</tspan>
    </text>
  </g>
  <g>
    <line style="fill: none; fill-opacity:0; stroke-width: 2; stroke: #2c5270" x1="338.151" y1="350.33" x2="335.014" y2="376.234"/>
    <polygon style="fill: #2c5270" points="334.112,383.68 330.35,373.151 335.014,376.234 340.278,374.353 "/>
    <polygon style="fill: none; fill-opacity:0; stroke-width: 2; stroke: #2c5270" points="334.112,383.68 330.35,373.151 335.014,376.234 340.278,374.353 "/>
  </g>
  <g>
    <ellipse style="fill: #9979bc" cx="285.3" cy="351.715" rx="11" ry="11"/>
    <ellipse style="fill: none; fill-opacity:0; stroke-width: 2; stroke: #663999" cx="285.3" cy="351.715" rx="11" ry="11"/>
    <text font-size="12.8" style="fill: #ffffff;text-anchor:middle;font-family:sans-serif;font-style:normal;font-weight:normal" x="285.3" y="355.715">
      <tspan x="285.3" y="355.715">N</tspan>
    </text>
  </g>
  <g>
    <line style="fill: none; fill-opacity:0; stroke-width: 2; stroke: #2c5270" x1="320.698" y1="337.049" x2="305.372" y2="343.399"/>
    <polygon style="fill: #2c5270" points="298.443,346.27 305.767,337.823 305.372,343.399 309.595,347.061 "/>
    <polygon style="fill: none; fill-opacity:0; stroke-width: 2; stroke: #2c5270" points="298.443,346.27 305.767,337.823 305.372,343.399 309.595,347.061 "/>
  </g>
  <g>
    <ellipse style="fill: #9979bc" cx="287.2" cy="305.615" rx="11" ry="11"/>
    <ellipse style="fill: none; fill-opacity:0; stroke-width: 2; stroke: #663999" cx="287.2" cy="305.615" rx="11" ry="11"/>
    <text font-size="12.8" style="fill: #ffffff;text-anchor:middle;font-family:sans-serif;font-style:normal;font-weight:normal" x="287.2" y="309.615">
      <tspan x="287.2" y="309.615">N</tspan>
    </text>
  </g>
  <g>
    <line style="fill: none; fill-opacity:0; stroke-width: 2; stroke: #2c5270" x1="320.836" y1="320.132" x2="307.157" y2="314.228"/>
    <polygon style="fill: #2c5270" points="300.271,311.256 311.434,310.628 307.157,314.228 307.471,319.81 "/>
    <polygon style="fill: none; fill-opacity:0; stroke-width: 2; stroke: #2c5270" points="300.271,311.256 311.434,310.628 307.157,314.228 307.471,319.81 "/>
  </g>
  <g>
    <ellipse style="fill: #9979bc" cx="412.1" cy="316.515" rx="11" ry="11"/>
    <ellipse style="fill: none; fill-opacity:0; stroke-width: 2; stroke: #663999" cx="412.1" cy="316.515" rx="11" ry="11"/>
    <text font-size="12.8" style="fill: #ffffff;text-anchor:middle;font-family:sans-serif;font-style:normal;font-weight:normal" x="412.1" y="320.515">
      <tspan x="412.1" y="320.515">N</tspan>
    </text>
  </g>
  <g>
    <line style="fill: none; fill-opacity:0; stroke-width: 2; stroke: #2c5270" x1="362.083" y1="325.083" x2="390.731" y2="320.175"/>
    <polygon style="fill: #2c5270" points="398.123,318.909 389.111,325.526 390.731,320.175 387.423,315.669 "/>
    <polygon style="fill: none; fill-opacity:0; stroke-width: 2; stroke: #2c5270" points="398.123,318.909 389.111,325.526 390.731,320.175 387.423,315.669 "/>
  </g>
  <g>
    <ellipse style="fill: #9979bc" cx="395" cy="272.415" rx="11" ry="11"/>
    <ellipse style="fill: none; fill-opacity:0; stroke-width: 2; stroke: #663999" cx="395" cy="272.415" rx="11" ry="11"/>
    <text font-size="12.8" style="fill: #ffffff;text-anchor:middle;font-family:sans-serif;font-style:normal;font-weight:normal" x="395" y="276.415">
      <tspan x="395" y="276.415">N</tspan>
    </text>
  </g>
  <g>
    <line style="fill: none; fill-opacity:0; stroke-width: 2; stroke: #2c5270" x1="357.456" y1="314.788" x2="387.529" y2="289.658"/>
    <polygon style="fill: #2c5270" points="393.284,284.849 388.817,295.098 387.529,289.658 382.405,287.424 "/>
    <polygon style="fill: none; fill-opacity:0; stroke-width: 2; stroke: #2c5270" points="393.284,284.849 388.817,295.098 387.529,289.658 382.405,287.424 "/>
  </g>
  <g>
    <ellipse style="fill: #9979bc" cx="301.9" cy="395.498" rx="11" ry="11"/>
    <ellipse style="fill: none; fill-opacity:0; stroke-width: 2; stroke: #663999" cx="301.9" cy="395.498" rx="11" ry="11"/>
    <text font-size="12.8" style="fill: #ffffff;text-anchor:middle;font-family:sans-serif;font-style:normal;font-weight:normal" x="301.9" y="399.498">
      <tspan x="301.9" y="399.498">N</tspan>
    </text>
  </g>
  <g>
    <line style="fill: none; fill-opacity:0; stroke-width: 2; stroke: #2c5270" x1="328.331" y1="346.575" x2="307.467" y2="376.51"/>
    <polygon style="fill: #2c5270" points="303.179,382.663 304.795,371.6 307.467,376.51 312.999,377.318 "/>
    <polygon style="fill: none; fill-opacity:0; stroke-width: 2; stroke: #2c5270" points="303.179,382.663 304.795,371.6 307.467,376.51 312.999,377.318 "/>
  </g>
  <g>
    <ellipse style="fill: #9979bc" cx="294.8" cy="274.398" rx="11" ry="11"/>
    <ellipse style="fill: none; fill-opacity:0; stroke-width: 2; stroke: #663999" cx="294.8" cy="274.398" rx="11" ry="11"/>
    <text font-size="12.8" style="fill: #ffffff;text-anchor:middle;font-family:sans-serif;font-style:normal;font-weight:normal" x="294.8" y="278.398">
      <tspan x="294.8" y="278.398">N</tspan>
    </text>
  </g>
  <g>
    <line style="fill: none; fill-opacity:0; stroke-width: 2; stroke: #2c5270" x1="326.738" y1="312.152" x2="308.837" y2="290.991"/>
    <polygon style="fill: #2c5270" points="303.993,285.265 314.269,289.67 308.837,290.991 306.634,296.129 "/>
    <polygon style="fill: none; fill-opacity:0; stroke-width: 2; stroke: #2c5270" points="303.993,285.265 314.269,289.67 308.837,290.991 306.634,296.129 "/>
  </g>
  <g>
    <ellipse style="fill: #9979bc" cx="359.7" cy="259.298" rx="11" ry="11"/>
    <ellipse style="fill: none; fill-opacity:0; stroke-width: 2; stroke: #663999" cx="359.7" cy="259.298" rx="11" ry="11"/>
    <text font-size="12.8" style="fill: #ffffff;text-anchor:middle;font-family:sans-serif;font-style:normal;font-weight:normal" x="359.7" y="263.298">
      <tspan x="359.7" y="263.298">N</tspan>
    </text>
  </g>
  <g>
    <line style="fill: none; fill-opacity:0; stroke-width: 2; stroke: #2c5270" x1="346.484" y1="307.764" x2="353.986" y2="280.252"/>
    <polygon style="fill: #2c5270" points="355.959,273.016 358.152,283.98 353.986,280.252 348.505,281.349 "/>
    <polygon style="fill: none; fill-opacity:0; stroke-width: 2; stroke: #2c5270" points="355.959,273.016 358.152,283.98 353.986,280.252 348.505,281.349 "/>
  </g>
  <g>
    <ellipse style="fill: #4482b4" cx="425.366" cy="164.336" rx="20.75" ry="20.75"/>
    <ellipse style="fill: none; fill-opacity:0; stroke-width: 2; stroke: #2c5270" cx="425.366" cy="164.336" rx="20.75" ry="20.75"/>
    <text font-size="12.8" style="fill: #ffffff;text-anchor:middle;font-family:sans-serif;font-style:normal;font-weight:normal" x="425.366" y="168.336">
      <tspan x="425.366" y="168.336">Voie</tspan>
    </text>
  </g>
  <g>
    <ellipse style="fill: #9979bc" cx="490.267" cy="189.382" rx="11" ry="11"/>
    <ellipse style="fill: none; fill-opacity:0; stroke-width: 2; stroke: #663999" cx="490.267" cy="189.382" rx="11" ry="11"/>
    <text font-size="12.8" style="fill: #ffffff;text-anchor:middle;font-family:sans-serif;font-style:normal;font-weight:normal" x="490.267" y="193.382">
      <tspan x="490.267" y="193.382">N</tspan>
    </text>
  </g>
  <g>
    <line style="fill: none; fill-opacity:0; stroke-width: 2; stroke: #2c5270" x1="445.655" y1="172.166" x2="469.989" y2="181.557"/>
    <polygon style="fill: #2c5270" points="476.986,184.257 465.856,185.322 469.989,181.557 469.457,175.992 "/>
    <polygon style="fill: none; fill-opacity:0; stroke-width: 2; stroke: #2c5270" points="476.986,184.257 465.856,185.322 469.989,181.557 469.457,175.992 "/>
  </g>
  <g>
    <ellipse style="fill: #9979bc" cx="464.1" cy="222.517" rx="11" ry="11"/>
    <ellipse style="fill: none; fill-opacity:0; stroke-width: 2; stroke: #663999" cx="464.1" cy="222.517" rx="11" ry="11"/>
    <text font-size="12.8" style="fill: #ffffff;text-anchor:middle;font-family:sans-serif;font-style:normal;font-weight:normal" x="464.1" y="226.517">
      <tspan x="464.1" y="226.517">N</tspan>
    </text>
  </g>
  <g>
    <line style="fill: none; fill-opacity:0; stroke-width: 2; stroke: #2c5270" x1="437.418" y1="182.44" x2="452.35" y2="204.868"/>
    <polygon style="fill: #2c5270" points="456.506,211.111 446.802,205.557 452.35,204.868 455.126,200.016 "/>
    <polygon style="fill: none; fill-opacity:0; stroke-width: 2; stroke: #2c5270" points="456.506,211.111 446.802,205.557 452.35,204.868 455.126,200.016 "/>
  </g>
  <g>
    <ellipse style="fill: #9979bc" cx="417" cy="233.417" rx="11" ry="11"/>
    <ellipse style="fill: none; fill-opacity:0; stroke-width: 2; stroke: #663999" cx="417" cy="233.417" rx="11" ry="11"/>
    <text font-size="12.8" style="fill: #ffffff;text-anchor:middle;font-family:sans-serif;font-style:normal;font-weight:normal" x="417" y="237.417">
      <tspan x="417" y="237.417">N</tspan>
    </text>
  </g>
  <g>
    <line style="fill: none; fill-opacity:0; stroke-width: 2; stroke: #2c5270" x1="422.751" y1="185.933" x2="419.614" y2="211.836"/>
    <polygon style="fill: #2c5270" points="418.712,219.282 414.95,208.753 419.614,211.836 424.878,209.956 "/>
    <polygon style="fill: none; fill-opacity:0; stroke-width: 2; stroke: #2c5270" points="418.712,219.282 414.95,208.753 419.614,211.836 424.878,209.956 "/>
  </g>
  <g>
    <ellipse style="fill: #9979bc" cx="369.9" cy="187.317" rx="11" ry="11"/>
    <ellipse style="fill: none; fill-opacity:0; stroke-width: 2; stroke: #663999" cx="369.9" cy="187.317" rx="11" ry="11"/>
    <text font-size="12.8" style="fill: #ffffff;text-anchor:middle;font-family:sans-serif;font-style:normal;font-weight:normal" x="369.9" y="191.317">
      <tspan x="369.9" y="191.317">N</tspan>
    </text>
  </g>
  <g>
    <line style="fill: none; fill-opacity:0; stroke-width: 2; stroke: #2c5270" x1="405.297" y1="172.651" x2="389.972" y2="179.001"/>
    <polygon style="fill: #2c5270" points="383.043,181.872 390.367,173.425 389.972,179.001 394.195,182.663 "/>
    <polygon style="fill: none; fill-opacity:0; stroke-width: 2; stroke: #2c5270" points="383.043,181.872 390.367,173.425 389.972,179.001 394.195,182.663 "/>
  </g>
  <g>
    <ellipse style="fill: #9979bc" cx="371.8" cy="141.217" rx="11" ry="11"/>
    <ellipse style="fill: none; fill-opacity:0; stroke-width: 2; stroke: #663999" cx="371.8" cy="141.217" rx="11" ry="11"/>
    <text font-size="12.8" style="fill: #ffffff;text-anchor:middle;font-family:sans-serif;font-style:normal;font-weight:normal" x="371.8" y="145.217">
      <tspan x="371.8" y="145.217">N</tspan>
    </text>
  </g>
  <g>
    <line style="fill: none; fill-opacity:0; stroke-width: 2; stroke: #2c5270" x1="405.436" y1="155.734" x2="391.757" y2="149.831"/>
    <polygon style="fill: #2c5270" points="384.871,146.859 396.034,146.231 391.757,149.831 392.071,155.412 "/>
    <polygon style="fill: none; fill-opacity:0; stroke-width: 2; stroke: #2c5270" points="384.871,146.859 396.034,146.231 391.757,149.831 392.071,155.412 "/>
  </g>
  <g>
    <ellipse style="fill: #9979bc" cx="496.7" cy="152.117" rx="11" ry="11"/>
    <ellipse style="fill: none; fill-opacity:0; stroke-width: 2; stroke: #663999" cx="496.7" cy="152.117" rx="11" ry="11"/>
    <text font-size="12.8" style="fill: #ffffff;text-anchor:middle;font-family:sans-serif;font-style:normal;font-weight:normal" x="496.7" y="156.117">
      <tspan x="496.7" y="156.117">N</tspan>
    </text>
  </g>
  <g>
    <line style="fill: none; fill-opacity:0; stroke-width: 2; stroke: #2c5270" x1="446.683" y1="160.685" x2="475.331" y2="155.778"/>
    <polygon style="fill: #2c5270" points="482.723,154.511 473.711,161.128 475.331,155.778 472.023,151.272 "/>
    <polygon style="fill: none; fill-opacity:0; stroke-width: 2; stroke: #2c5270" points="482.723,154.511 473.711,161.128 475.331,155.778 472.023,151.272 "/>
  </g>
  <g>
    <ellipse style="fill: #9979bc" cx="479.6" cy="108.017" rx="11" ry="11"/>
    <ellipse style="fill: none; fill-opacity:0; stroke-width: 2; stroke: #663999" cx="479.6" cy="108.017" rx="11" ry="11"/>
    <text font-size="12.8" style="fill: #ffffff;text-anchor:middle;font-family:sans-serif;font-style:normal;font-weight:normal" x="479.6" y="112.017">
      <tspan x="479.6" y="112.017">N</tspan>
    </text>
  </g>
  <g>
    <line style="fill: none; fill-opacity:0; stroke-width: 2; stroke: #2c5270" x1="442.056" y1="150.39" x2="472.129" y2="125.26"/>
    <polygon style="fill: #2c5270" points="477.884,120.451 473.417,130.7 472.129,125.26 467.004,123.026 "/>
    <polygon style="fill: none; fill-opacity:0; stroke-width: 2; stroke: #2c5270" points="477.884,120.451 473.417,130.7 472.129,125.26 467.004,123.026 "/>
  </g>
  <g>
    <ellipse style="fill: #9979bc" cx="386.5" cy="231.1" rx="11" ry="11"/>
    <ellipse style="fill: none; fill-opacity:0; stroke-width: 2; stroke: #663999" cx="386.5" cy="231.1" rx="11" ry="11"/>
    <text font-size="12.8" style="fill: #ffffff;text-anchor:middle;font-family:sans-serif;font-style:normal;font-weight:normal" x="386.5" y="235.1">
      <tspan x="386.5" y="235.1">N</tspan>
    </text>
  </g>
  <g>
    <line style="fill: none; fill-opacity:0; stroke-width: 2; stroke: #2c5270" x1="412.931" y1="182.178" x2="392.067" y2="212.113"/>
    <polygon style="fill: #2c5270" points="387.778,218.266 389.394,207.203 392.067,212.113 397.598,212.921 "/>
    <polygon style="fill: none; fill-opacity:0; stroke-width: 2; stroke: #2c5270" points="387.778,218.266 389.394,207.203 392.067,212.113 397.598,212.921 "/>
  </g>
  <g>
    <ellipse style="fill: #9979bc" cx="379.4" cy="110" rx="11" ry="11"/>
    <ellipse style="fill: none; fill-opacity:0; stroke-width: 2; stroke: #663999" cx="379.4" cy="110" rx="11" ry="11"/>
    <text font-size="12.8" style="fill: #ffffff;text-anchor:middle;font-family:sans-serif;font-style:normal;font-weight:normal" x="379.4" y="114">
      <tspan x="379.4" y="114">N</tspan>
    </text>
  </g>
  <g>
    <line style="fill: none; fill-opacity:0; stroke-width: 2; stroke: #2c5270" x1="411.338" y1="147.754" x2="393.437" y2="126.593"/>
    <polygon style="fill: #2c5270" points="388.593,120.867 398.869,125.272 393.437,126.593 391.234,131.731 "/>
    <polygon style="fill: none; fill-opacity:0; stroke-width: 2; stroke: #2c5270" points="388.593,120.867 398.869,125.272 393.437,126.593 391.234,131.731 "/>
  </g>
  <g>
    <ellipse style="fill: #9979bc" cx="444.3" cy="94.9" rx="11" ry="11"/>
    <ellipse style="fill: none; fill-opacity:0; stroke-width: 2; stroke: #663999" cx="444.3" cy="94.9" rx="11" ry="11"/>
    <text font-size="12.8" style="fill: #ffffff;text-anchor:middle;font-family:sans-serif;font-style:normal;font-weight:normal" x="444.3" y="98.9">
      <tspan x="444.3" y="98.9">N</tspan>
    </text>
  </g>
  <g>
    <line style="fill: none; fill-opacity:0; stroke-width: 2; stroke: #2c5270" x1="431.084" y1="143.366" x2="438.586" y2="115.855"/>
    <polygon style="fill: #2c5270" points="440.559,108.619 442.752,119.582 438.586,115.855 433.104,116.951 "/>
    <polygon style="fill: none; fill-opacity:0; stroke-width: 2; stroke: #2c5270" points="440.559,108.619 442.752,119.582 438.586,115.855 433.104,116.951 "/>
  </g>
  <g>
    <ellipse style="fill: #4482b4" cx="191.266" cy="265.236" rx="20.75" ry="20.75"/>
    <ellipse style="fill: none; fill-opacity:0; stroke-width: 2; stroke: #2c5270" cx="191.266" cy="265.236" rx="20.75" ry="20.75"/>
    <text font-size="12.8" style="fill: #ffffff;text-anchor:middle;font-family:sans-serif;font-style:normal;font-weight:normal" x="191.266" y="269.236">
      <tspan x="191.266" y="269.236">Voie</tspan>
    </text>
  </g>
  <g>
    <ellipse style="fill: #9979bc" cx="256.167" cy="290.282" rx="11" ry="11"/>
    <ellipse style="fill: none; fill-opacity:0; stroke-width: 2; stroke: #663999" cx="256.167" cy="290.282" rx="11" ry="11"/>
    <text font-size="12.8" style="fill: #ffffff;text-anchor:middle;font-family:sans-serif;font-style:normal;font-weight:normal" x="256.167" y="294.282">
      <tspan x="256.167" y="294.282">N</tspan>
    </text>
  </g>
  <g>
    <line style="fill: none; fill-opacity:0; stroke-width: 2; stroke: #2c5270" x1="211.555" y1="273.066" x2="235.889" y2="282.457"/>
    <polygon style="fill: #2c5270" points="242.886,285.157 231.756,286.222 235.889,282.457 235.357,276.892 "/>
    <polygon style="fill: none; fill-opacity:0; stroke-width: 2; stroke: #2c5270" points="242.886,285.157 231.756,286.222 235.889,282.457 235.357,276.892 "/>
  </g>
  <g>
    <ellipse style="fill: #9979bc" cx="230" cy="323.417" rx="11" ry="11"/>
    <ellipse style="fill: none; fill-opacity:0; stroke-width: 2; stroke: #663999" cx="230" cy="323.417" rx="11" ry="11"/>
    <text font-size="12.8" style="fill: #ffffff;text-anchor:middle;font-family:sans-serif;font-style:normal;font-weight:normal" x="230" y="327.417">
      <tspan x="230" y="327.417">N</tspan>
    </text>
  </g>
  <g>
    <line style="fill: none; fill-opacity:0; stroke-width: 2; stroke: #2c5270" x1="203.318" y1="283.34" x2="218.25" y2="305.768"/>
    <polygon style="fill: #2c5270" points="222.406,312.011 212.702,306.457 218.25,305.768 221.026,300.916 "/>
    <polygon style="fill: none; fill-opacity:0; stroke-width: 2; stroke: #2c5270" points="222.406,312.011 212.702,306.457 218.25,305.768 221.026,300.916 "/>
  </g>
  <g>
    <ellipse style="fill: #9979bc" cx="182.9" cy="334.317" rx="11" ry="11"/>
    <ellipse style="fill: none; fill-opacity:0; stroke-width: 2; stroke: #663999" cx="182.9" cy="334.317" rx="11" ry="11"/>
    <text font-size="12.8" style="fill: #ffffff;text-anchor:middle;font-family:sans-serif;font-style:normal;font-weight:normal" x="182.9" y="338.317">
      <tspan x="182.9" y="338.317">N</tspan>
    </text>
  </g>
  <g>
    <line style="fill: none; fill-opacity:0; stroke-width: 2; stroke: #2c5270" x1="188.651" y1="286.833" x2="185.514" y2="312.736"/>
    <polygon style="fill: #2c5270" points="184.612,320.182 180.85,309.653 185.514,312.736 190.778,310.856 "/>
    <polygon style="fill: none; fill-opacity:0; stroke-width: 2; stroke: #2c5270" points="184.612,320.182 180.85,309.653 185.514,312.736 190.778,310.856 "/>
  </g>
  <g>
    <ellipse style="fill: #9979bc" cx="135.8" cy="288.217" rx="11" ry="11"/>
    <ellipse style="fill: none; fill-opacity:0; stroke-width: 2; stroke: #663999" cx="135.8" cy="288.217" rx="11" ry="11"/>
    <text font-size="12.8" style="fill: #ffffff;text-anchor:middle;font-family:sans-serif;font-style:normal;font-weight:normal" x="135.8" y="292.217">
      <tspan x="135.8" y="292.217">N</tspan>
    </text>
  </g>
  <g>
    <line style="fill: none; fill-opacity:0; stroke-width: 2; stroke: #2c5270" x1="171.197" y1="273.551" x2="155.872" y2="279.901"/>
    <polygon style="fill: #2c5270" points="148.943,282.772 156.267,274.325 155.872,279.901 160.095,283.563 "/>
    <polygon style="fill: none; fill-opacity:0; stroke-width: 2; stroke: #2c5270" points="148.943,282.772 156.267,274.325 155.872,279.901 160.095,283.563 "/>
  </g>
  <g>
    <ellipse style="fill: #9979bc" cx="137.7" cy="242.117" rx="11" ry="11"/>
    <ellipse style="fill: none; fill-opacity:0; stroke-width: 2; stroke: #663999" cx="137.7" cy="242.117" rx="11" ry="11"/>
    <text font-size="12.8" style="fill: #ffffff;text-anchor:middle;font-family:sans-serif;font-style:normal;font-weight:normal" x="137.7" y="246.117">
      <tspan x="137.7" y="246.117">N</tspan>
    </text>
  </g>
  <g>
    <line style="fill: none; fill-opacity:0; stroke-width: 2; stroke: #2c5270" x1="171.336" y1="256.634" x2="157.657" y2="250.731"/>
    <polygon style="fill: #2c5270" points="150.771,247.759 161.934,247.131 157.657,250.731 157.971,256.312 "/>
    <polygon style="fill: none; fill-opacity:0; stroke-width: 2; stroke: #2c5270" points="150.771,247.759 161.934,247.131 157.657,250.731 157.971,256.312 "/>
  </g>
  <g>
    <ellipse style="fill: #9979bc" cx="262.6" cy="253.017" rx="11" ry="11"/>
    <ellipse style="fill: none; fill-opacity:0; stroke-width: 2; stroke: #663999" cx="262.6" cy="253.017" rx="11" ry="11"/>
    <text font-size="12.8" style="fill: #ffffff;text-anchor:middle;font-family:sans-serif;font-style:normal;font-weight:normal" x="262.6" y="257.017">
      <tspan x="262.6" y="257.017">N</tspan>
    </text>
  </g>
  <g>
    <line style="fill: none; fill-opacity:0; stroke-width: 2; stroke: #2c5270" x1="212.583" y1="261.585" x2="241.231" y2="256.678"/>
    <polygon style="fill: #2c5270" points="248.623,255.411 239.611,262.028 241.231,256.678 237.923,252.172 "/>
    <polygon style="fill: none; fill-opacity:0; stroke-width: 2; stroke: #2c5270" points="248.623,255.411 239.611,262.028 241.231,256.678 237.923,252.172 "/>
  </g>
  <g>
    <ellipse style="fill: #9979bc" cx="245.5" cy="208.917" rx="11" ry="11"/>
    <ellipse style="fill: none; fill-opacity:0; stroke-width: 2; stroke: #663999" cx="245.5" cy="208.917" rx="11" ry="11"/>
    <text font-size="12.8" style="fill: #ffffff;text-anchor:middle;font-family:sans-serif;font-style:normal;font-weight:normal" x="245.5" y="212.917">
      <tspan x="245.5" y="212.917">N</tspan>
    </text>
  </g>
  <g>
    <line style="fill: none; fill-opacity:0; stroke-width: 2; stroke: #2c5270" x1="207.956" y1="251.29" x2="238.029" y2="226.16"/>
    <polygon style="fill: #2c5270" points="243.784,221.351 239.317,231.6 238.029,226.16 232.904,223.926 "/>
    <polygon style="fill: none; fill-opacity:0; stroke-width: 2; stroke: #2c5270" points="243.784,221.351 239.317,231.6 238.029,226.16 232.904,223.926 "/>
  </g>
  <g>
    <ellipse style="fill: #9979bc" cx="152.4" cy="332" rx="11" ry="11"/>
    <ellipse style="fill: none; fill-opacity:0; stroke-width: 2; stroke: #663999" cx="152.4" cy="332" rx="11" ry="11"/>
    <text font-size="12.8" style="fill: #ffffff;text-anchor:middle;font-family:sans-serif;font-style:normal;font-weight:normal" x="152.4" y="336">
      <tspan x="152.4" y="336">N</tspan>
    </text>
  </g>
  <g>
    <line style="fill: none; fill-opacity:0; stroke-width: 2; stroke: #2c5270" x1="178.831" y1="283.078" x2="157.967" y2="313.013"/>
    <polygon style="fill: #2c5270" points="153.678,319.166 155.294,308.103 157.967,313.013 163.498,313.821 "/>
    <polygon style="fill: none; fill-opacity:0; stroke-width: 2; stroke: #2c5270" points="153.678,319.166 155.294,308.103 157.967,313.013 163.498,313.821 "/>
  </g>
  <g>
    <ellipse style="fill: #9979bc" cx="145.3" cy="210.9" rx="11" ry="11"/>
    <ellipse style="fill: none; fill-opacity:0; stroke-width: 2; stroke: #663999" cx="145.3" cy="210.9" rx="11" ry="11"/>
    <text font-size="12.8" style="fill: #ffffff;text-anchor:middle;font-family:sans-serif;font-style:normal;font-weight:normal" x="145.3" y="214.9">
      <tspan x="145.3" y="214.9">N</tspan>
    </text>
  </g>
  <g>
    <line style="fill: none; fill-opacity:0; stroke-width: 2; stroke: #2c5270" x1="177.238" y1="248.654" x2="159.337" y2="227.493"/>
    <polygon style="fill: #2c5270" points="154.493,221.767 164.769,226.172 159.337,227.493 157.134,232.631 "/>
    <polygon style="fill: none; fill-opacity:0; stroke-width: 2; stroke: #2c5270" points="154.493,221.767 164.769,226.172 159.337,227.493 157.134,232.631 "/>
  </g>
  <g>
    <ellipse style="fill: #9979bc" cx="210.2" cy="195.8" rx="11" ry="11"/>
    <ellipse style="fill: none; fill-opacity:0; stroke-width: 2; stroke: #663999" cx="210.2" cy="195.8" rx="11" ry="11"/>
    <text font-size="12.8" style="fill: #ffffff;text-anchor:middle;font-family:sans-serif;font-style:normal;font-weight:normal" x="210.2" y="199.8">
      <tspan x="210.2" y="199.8">N</tspan>
    </text>
  </g>
  <g>
    <line style="fill: none; fill-opacity:0; stroke-width: 2; stroke: #2c5270" x1="196.984" y1="244.266" x2="204.486" y2="216.755"/>
    <polygon style="fill: #2c5270" points="206.459,209.519 208.652,220.482 204.486,216.755 199.004,217.851 "/>
    <polygon style="fill: none; fill-opacity:0; stroke-width: 2; stroke: #2c5270" points="206.459,209.519 208.652,220.482 204.486,216.755 199.004,217.851 "/>
  </g>
  <g>
    <line style="fill: none; fill-opacity:0; stroke-width: 2; stroke: #008cc2" x1="324.322" y1="158.016" x2="393.963" y2="162.372"/>
    <polygon style="fill: #008cc2" points="401.448,162.84 391.155,167.206 393.963,162.372 391.78,157.226 "/>
    <polygon style="fill: none; fill-opacity:0; stroke-width: 2; stroke: #008cc2" points="401.448,162.84 391.155,167.206 393.963,162.372 391.78,157.226 "/>
  </g>
  <g>
    <ellipse style="fill: #008cc2" cx="661.021" cy="347.614" rx="37.7325" ry="37.7325"/>
    <ellipse style="fill: none; fill-opacity:0; stroke-width: 2; stroke: #207596" cx="661.021" cy="347.614" rx="37.7325" ry="37.7325"/>
    <text font-size="12.8" style="fill: #ffffff;text-anchor:middle;font-family:sans-serif;font-style:normal;font-weight:normal" x="661.021" y="351.614">
      <tspan x="661.021" y="351.614">Commune</tspan>
    </text>
  </g>
  <g>
    <ellipse style="fill: #4482b4" cx="519.866" cy="338.734" rx="20.75" ry="20.75"/>
    <ellipse style="fill: none; fill-opacity:0; stroke-width: 2; stroke: #2c5270" cx="519.866" cy="338.734" rx="20.75" ry="20.75"/>
    <text font-size="12.8" style="fill: #ffffff;text-anchor:middle;font-family:sans-serif;font-style:normal;font-weight:normal" x="519.866" y="342.734">
      <tspan x="519.866" y="342.734">Voie</tspan>
    </text>
  </g>
  <g>
    <ellipse style="fill: #9979bc" cx="584.767" cy="363.78" rx="11" ry="11"/>
    <ellipse style="fill: none; fill-opacity:0; stroke-width: 2; stroke: #663999" cx="584.767" cy="363.78" rx="11" ry="11"/>
    <text font-size="12.8" style="fill: #ffffff;text-anchor:middle;font-family:sans-serif;font-style:normal;font-weight:normal" x="584.767" y="367.78">
      <tspan x="584.767" y="367.78">N</tspan>
    </text>
  </g>
  <g>
    <line style="fill: none; fill-opacity:0; stroke-width: 2; stroke: #008cc2" x1="622.389" y1="345.184" x2="551.259" y2="340.709"/>
    <polygon style="fill: #008cc2" points="543.774,340.238 554.068,335.876 551.259,340.709 553.44,345.856 "/>
    <polygon style="fill: none; fill-opacity:0; stroke-width: 2; stroke: #008cc2" points="543.774,340.238 554.068,335.876 551.259,340.709 553.44,345.856 "/>
  </g>
  <g>
    <line style="fill: none; fill-opacity:0; stroke-width: 2; stroke: #2c5270" x1="540.155" y1="346.564" x2="564.489" y2="355.955"/>
    <polygon style="fill: #2c5270" points="571.486,358.655 560.357,359.719 564.489,355.955 563.957,350.39 "/>
    <polygon style="fill: none; fill-opacity:0; stroke-width: 2; stroke: #2c5270" points="571.486,358.655 560.357,359.719 564.489,355.955 563.957,350.39 "/>
  </g>
  <g>
    <ellipse style="fill: #9979bc" cx="558.6" cy="396.915" rx="11" ry="11"/>
    <ellipse style="fill: none; fill-opacity:0; stroke-width: 2; stroke: #663999" cx="558.6" cy="396.915" rx="11" ry="11"/>
    <text font-size="12.8" style="fill: #ffffff;text-anchor:middle;font-family:sans-serif;font-style:normal;font-weight:normal" x="558.6" y="400.915">
      <tspan x="558.6" y="400.915">N</tspan>
    </text>
  </g>
  <g>
    <line style="fill: none; fill-opacity:0; stroke-width: 2; stroke: #2c5270" x1="531.918" y1="356.837" x2="546.85" y2="379.265"/>
    <polygon style="fill: #2c5270" points="551.006,385.508 541.302,379.955 546.85,379.265 549.626,374.414 "/>
    <polygon style="fill: none; fill-opacity:0; stroke-width: 2; stroke: #2c5270" points="551.006,385.508 541.302,379.955 546.85,379.265 549.626,374.414 "/>
  </g>
  <g>
    <ellipse style="fill: #9979bc" cx="511.5" cy="407.815" rx="11" ry="11"/>
    <ellipse style="fill: none; fill-opacity:0; stroke-width: 2; stroke: #663999" cx="511.5" cy="407.815" rx="11" ry="11"/>
    <text font-size="12.8" style="fill: #ffffff;text-anchor:middle;font-family:sans-serif;font-style:normal;font-weight:normal" x="511.5" y="411.815">
      <tspan x="511.5" y="411.815">N</tspan>
    </text>
  </g>
  <g>
    <line style="fill: none; fill-opacity:0; stroke-width: 2; stroke: #2c5270" x1="517.251" y1="360.33" x2="514.114" y2="386.234"/>
    <polygon style="fill: #2c5270" points="513.212,393.68 509.45,383.151 514.114,386.234 519.378,384.353 "/>
    <polygon style="fill: none; fill-opacity:0; stroke-width: 2; stroke: #2c5270" points="513.212,393.68 509.45,383.151 514.114,386.234 519.378,384.353 "/>
  </g>
  <g>
    <ellipse style="fill: #9979bc" cx="464.4" cy="361.715" rx="11" ry="11"/>
    <ellipse style="fill: none; fill-opacity:0; stroke-width: 2; stroke: #663999" cx="464.4" cy="361.715" rx="11" ry="11"/>
    <text font-size="12.8" style="fill: #ffffff;text-anchor:middle;font-family:sans-serif;font-style:normal;font-weight:normal" x="464.4" y="365.715">
      <tspan x="464.4" y="365.715">N</tspan>
    </text>
  </g>
  <g>
    <line style="fill: none; fill-opacity:0; stroke-width: 2; stroke: #2c5270" x1="499.798" y1="347.049" x2="484.472" y2="353.399"/>
    <polygon style="fill: #2c5270" points="477.543,356.27 484.867,347.823 484.472,353.399 488.695,357.061 "/>
    <polygon style="fill: none; fill-opacity:0; stroke-width: 2; stroke: #2c5270" points="477.543,356.27 484.867,347.823 484.472,353.399 488.695,357.061 "/>
  </g>
  <g>
    <ellipse style="fill: #9979bc" cx="466.3" cy="315.615" rx="11" ry="11"/>
    <ellipse style="fill: none; fill-opacity:0; stroke-width: 2; stroke: #663999" cx="466.3" cy="315.615" rx="11" ry="11"/>
    <text font-size="12.8" style="fill: #ffffff;text-anchor:middle;font-family:sans-serif;font-style:normal;font-weight:normal" x="466.3" y="319.615">
      <tspan x="466.3" y="319.615">N</tspan>
    </text>
  </g>
  <g>
    <line style="fill: none; fill-opacity:0; stroke-width: 2; stroke: #2c5270" x1="499.936" y1="330.132" x2="486.257" y2="324.228"/>
    <polygon style="fill: #2c5270" points="479.371,321.256 490.534,320.628 486.257,324.228 486.571,329.81 "/>
    <polygon style="fill: none; fill-opacity:0; stroke-width: 2; stroke: #2c5270" points="479.371,321.256 490.534,320.628 486.257,324.228 486.571,329.81 "/>
  </g>
  <g>
    <ellipse style="fill: #9979bc" cx="591.2" cy="326.515" rx="11" ry="11"/>
    <ellipse style="fill: none; fill-opacity:0; stroke-width: 2; stroke: #663999" cx="591.2" cy="326.515" rx="11" ry="11"/>
    <text font-size="12.8" style="fill: #ffffff;text-anchor:middle;font-family:sans-serif;font-style:normal;font-weight:normal" x="591.2" y="330.515">
      <tspan x="591.2" y="330.515">N</tspan>
    </text>
  </g>
  <g>
    <line style="fill: none; fill-opacity:0; stroke-width: 2; stroke: #2c5270" x1="541.183" y1="335.083" x2="569.831" y2="330.175"/>
    <polygon style="fill: #2c5270" points="577.223,328.909 568.211,335.526 569.831,330.175 566.523,325.669 "/>
    <polygon style="fill: none; fill-opacity:0; stroke-width: 2; stroke: #2c5270" points="577.223,328.909 568.211,335.526 569.831,330.175 566.523,325.669 "/>
  </g>
  <g>
    <ellipse style="fill: #9979bc" cx="574.1" cy="282.415" rx="11" ry="11"/>
    <ellipse style="fill: none; fill-opacity:0; stroke-width: 2; stroke: #663999" cx="574.1" cy="282.415" rx="11" ry="11"/>
    <text font-size="12.8" style="fill: #ffffff;text-anchor:middle;font-family:sans-serif;font-style:normal;font-weight:normal" x="574.1" y="286.415">
      <tspan x="574.1" y="286.415">N</tspan>
    </text>
  </g>
  <g>
    <line style="fill: none; fill-opacity:0; stroke-width: 2; stroke: #2c5270" x1="536.556" y1="324.788" x2="566.629" y2="299.658"/>
    <polygon style="fill: #2c5270" points="572.384,294.849 567.917,305.098 566.629,299.658 561.505,297.424 "/>
    <polygon style="fill: none; fill-opacity:0; stroke-width: 2; stroke: #2c5270" points="572.384,294.849 567.917,305.098 566.629,299.658 561.505,297.424 "/>
  </g>
  <g>
    <ellipse style="fill: #9979bc" cx="481" cy="405.498" rx="11" ry="11"/>
    <ellipse style="fill: none; fill-opacity:0; stroke-width: 2; stroke: #663999" cx="481" cy="405.498" rx="11" ry="11"/>
    <text font-size="12.8" style="fill: #ffffff;text-anchor:middle;font-family:sans-serif;font-style:normal;font-weight:normal" x="481" y="409.498">
      <tspan x="481" y="409.498">N</tspan>
    </text>
  </g>
  <g>
    <line style="fill: none; fill-opacity:0; stroke-width: 2; stroke: #2c5270" x1="507.431" y1="356.575" x2="486.567" y2="386.51"/>
    <polygon style="fill: #2c5270" points="482.279,392.663 483.895,381.6 486.567,386.51 492.099,387.318 "/>
    <polygon style="fill: none; fill-opacity:0; stroke-width: 2; stroke: #2c5270" points="482.279,392.663 483.895,381.6 486.567,386.51 492.099,387.318 "/>
  </g>
  <g>
    <ellipse style="fill: #9979bc" cx="473.9" cy="284.398" rx="11" ry="11"/>
    <ellipse style="fill: none; fill-opacity:0; stroke-width: 2; stroke: #663999" cx="473.9" cy="284.398" rx="11" ry="11"/>
    <text font-size="12.8" style="fill: #ffffff;text-anchor:middle;font-family:sans-serif;font-style:normal;font-weight:normal" x="473.9" y="288.398">
      <tspan x="473.9" y="288.398">N</tspan>
    </text>
  </g>
  <g>
    <line style="fill: none; fill-opacity:0; stroke-width: 2; stroke: #2c5270" x1="505.838" y1="322.152" x2="487.937" y2="300.991"/>
    <polygon style="fill: #2c5270" points="483.093,295.265 493.369,299.67 487.937,300.991 485.734,306.129 "/>
    <polygon style="fill: none; fill-opacity:0; stroke-width: 2; stroke: #2c5270" points="483.093,295.265 493.369,299.67 487.937,300.991 485.734,306.129 "/>
  </g>
  <g>
    <ellipse style="fill: #9979bc" cx="538.8" cy="269.298" rx="11" ry="11"/>
    <ellipse style="fill: none; fill-opacity:0; stroke-width: 2; stroke: #663999" cx="538.8" cy="269.298" rx="11" ry="11"/>
    <text font-size="12.8" style="fill: #ffffff;text-anchor:middle;font-family:sans-serif;font-style:normal;font-weight:normal" x="538.8" y="273.298">
      <tspan x="538.8" y="273.298">N</tspan>
    </text>
  </g>
  <g>
    <line style="fill: none; fill-opacity:0; stroke-width: 2; stroke: #2c5270" x1="525.584" y1="317.764" x2="533.086" y2="290.252"/>
    <polygon style="fill: #2c5270" points="535.059,283.016 537.252,293.98 533.086,290.252 527.605,291.349 "/>
    <polygon style="fill: none; fill-opacity:0; stroke-width: 2; stroke: #2c5270" points="535.059,283.016 537.252,293.98 533.086,290.252 527.605,291.349 "/>
  </g>
  <g>
    <ellipse style="fill: #4482b4" cx="604.466" cy="174.336" rx="20.75" ry="20.75"/>
    <ellipse style="fill: none; fill-opacity:0; stroke-width: 2; stroke: #2c5270" cx="604.466" cy="174.336" rx="20.75" ry="20.75"/>
    <text font-size="12.8" style="fill: #ffffff;text-anchor:middle;font-family:sans-serif;font-style:normal;font-weight:normal" x="604.466" y="178.336">
      <tspan x="604.466" y="178.336">Voie</tspan>
    </text>
  </g>
  <g>
    <ellipse style="fill: #9979bc" cx="669.367" cy="199.382" rx="11" ry="11"/>
    <ellipse style="fill: none; fill-opacity:0; stroke-width: 2; stroke: #663999" cx="669.367" cy="199.382" rx="11" ry="11"/>
    <text font-size="12.8" style="fill: #ffffff;text-anchor:middle;font-family:sans-serif;font-style:normal;font-weight:normal" x="669.367" y="203.382">
      <tspan x="669.367" y="203.382">N</tspan>
    </text>
  </g>
  <g>
    <line style="fill: none; fill-opacity:0; stroke-width: 2; stroke: #2c5270" x1="624.755" y1="182.166" x2="649.089" y2="191.557"/>
    <polygon style="fill: #2c5270" points="656.086,194.257 644.956,195.322 649.089,191.557 648.557,185.992 "/>
    <polygon style="fill: none; fill-opacity:0; stroke-width: 2; stroke: #2c5270" points="656.086,194.257 644.956,195.322 649.089,191.557 648.557,185.992 "/>
  </g>
  <g>
    <ellipse style="fill: #9979bc" cx="643.2" cy="232.517" rx="11" ry="11"/>
    <ellipse style="fill: none; fill-opacity:0; stroke-width: 2; stroke: #663999" cx="643.2" cy="232.517" rx="11" ry="11"/>
    <text font-size="12.8" style="fill: #ffffff;text-anchor:middle;font-family:sans-serif;font-style:normal;font-weight:normal" x="643.2" y="236.517">
      <tspan x="643.2" y="236.517">N</tspan>
    </text>
  </g>
  <g>
    <line style="fill: none; fill-opacity:0; stroke-width: 2; stroke: #2c5270" x1="616.518" y1="192.44" x2="631.45" y2="214.868"/>
    <polygon style="fill: #2c5270" points="635.606,221.111 625.902,215.557 631.45,214.868 634.226,210.016 "/>
    <polygon style="fill: none; fill-opacity:0; stroke-width: 2; stroke: #2c5270" points="635.606,221.111 625.902,215.557 631.45,214.868 634.226,210.016 "/>
  </g>
  <g>
    <ellipse style="fill: #9979bc" cx="596.1" cy="243.417" rx="11" ry="11"/>
    <ellipse style="fill: none; fill-opacity:0; stroke-width: 2; stroke: #663999" cx="596.1" cy="243.417" rx="11" ry="11"/>
    <text font-size="12.8" style="fill: #ffffff;text-anchor:middle;font-family:sans-serif;font-style:normal;font-weight:normal" x="596.1" y="247.417">
      <tspan x="596.1" y="247.417">N</tspan>
    </text>
  </g>
  <g>
    <line style="fill: none; fill-opacity:0; stroke-width: 2; stroke: #2c5270" x1="601.851" y1="195.933" x2="598.714" y2="221.836"/>
    <polygon style="fill: #2c5270" points="597.812,229.282 594.05,218.753 598.714,221.836 603.978,219.956 "/>
    <polygon style="fill: none; fill-opacity:0; stroke-width: 2; stroke: #2c5270" points="597.812,229.282 594.05,218.753 598.714,221.836 603.978,219.956 "/>
  </g>
  <g>
    <ellipse style="fill: #9979bc" cx="549" cy="197.317" rx="11" ry="11"/>
    <ellipse style="fill: none; fill-opacity:0; stroke-width: 2; stroke: #663999" cx="549" cy="197.317" rx="11" ry="11"/>
    <text font-size="12.8" style="fill: #ffffff;text-anchor:middle;font-family:sans-serif;font-style:normal;font-weight:normal" x="549" y="201.317">
      <tspan x="549" y="201.317">N</tspan>
    </text>
  </g>
  <g>
    <line style="fill: none; fill-opacity:0; stroke-width: 2; stroke: #2c5270" x1="584.397" y1="182.651" x2="569.072" y2="189.001"/>
    <polygon style="fill: #2c5270" points="562.143,191.872 569.467,183.425 569.072,189.001 573.295,192.663 "/>
    <polygon style="fill: none; fill-opacity:0; stroke-width: 2; stroke: #2c5270" points="562.143,191.872 569.467,183.425 569.072,189.001 573.295,192.663 "/>
  </g>
  <g>
    <ellipse style="fill: #9979bc" cx="550.9" cy="151.217" rx="11" ry="11"/>
    <ellipse style="fill: none; fill-opacity:0; stroke-width: 2; stroke: #663999" cx="550.9" cy="151.217" rx="11" ry="11"/>
    <text font-size="12.8" style="fill: #ffffff;text-anchor:middle;font-family:sans-serif;font-style:normal;font-weight:normal" x="550.9" y="155.217">
      <tspan x="550.9" y="155.217">N</tspan>
    </text>
  </g>
  <g>
    <line style="fill: none; fill-opacity:0; stroke-width: 2; stroke: #2c5270" x1="584.536" y1="165.734" x2="570.857" y2="159.831"/>
    <polygon style="fill: #2c5270" points="563.971,156.859 575.134,156.231 570.857,159.831 571.171,165.412 "/>
    <polygon style="fill: none; fill-opacity:0; stroke-width: 2; stroke: #2c5270" points="563.971,156.859 575.134,156.231 570.857,159.831 571.171,165.412 "/>
  </g>
  <g>
    <ellipse style="fill: #9979bc" cx="675.8" cy="162.117" rx="11" ry="11"/>
    <ellipse style="fill: none; fill-opacity:0; stroke-width: 2; stroke: #663999" cx="675.8" cy="162.117" rx="11" ry="11"/>
    <text font-size="12.8" style="fill: #ffffff;text-anchor:middle;font-family:sans-serif;font-style:normal;font-weight:normal" x="675.8" y="166.117">
      <tspan x="675.8" y="166.117">N</tspan>
    </text>
  </g>
  <g>
    <line style="fill: none; fill-opacity:0; stroke-width: 2; stroke: #2c5270" x1="625.783" y1="170.685" x2="654.431" y2="165.778"/>
    <polygon style="fill: #2c5270" points="661.823,164.511 652.811,171.128 654.431,165.778 651.123,161.272 "/>
    <polygon style="fill: none; fill-opacity:0; stroke-width: 2; stroke: #2c5270" points="661.823,164.511 652.811,171.128 654.431,165.778 651.123,161.272 "/>
  </g>
  <g>
    <ellipse style="fill: #9979bc" cx="658.7" cy="118.017" rx="11" ry="11"/>
    <ellipse style="fill: none; fill-opacity:0; stroke-width: 2; stroke: #663999" cx="658.7" cy="118.017" rx="11" ry="11"/>
    <text font-size="12.8" style="fill: #ffffff;text-anchor:middle;font-family:sans-serif;font-style:normal;font-weight:normal" x="658.7" y="122.017">
      <tspan x="658.7" y="122.017">N</tspan>
    </text>
  </g>
  <g>
    <line style="fill: none; fill-opacity:0; stroke-width: 2; stroke: #2c5270" x1="621.156" y1="160.39" x2="651.229" y2="135.26"/>
    <polygon style="fill: #2c5270" points="656.984,130.451 652.517,140.7 651.229,135.26 646.104,133.026 "/>
    <polygon style="fill: none; fill-opacity:0; stroke-width: 2; stroke: #2c5270" points="656.984,130.451 652.517,140.7 651.229,135.26 646.104,133.026 "/>
  </g>
  <g>
    <ellipse style="fill: #9979bc" cx="565.6" cy="241.1" rx="11" ry="11"/>
    <ellipse style="fill: none; fill-opacity:0; stroke-width: 2; stroke: #663999" cx="565.6" cy="241.1" rx="11" ry="11"/>
    <text font-size="12.8" style="fill: #ffffff;text-anchor:middle;font-family:sans-serif;font-style:normal;font-weight:normal" x="565.6" y="245.1">
      <tspan x="565.6" y="245.1">N</tspan>
    </text>
  </g>
  <g>
    <line style="fill: none; fill-opacity:0; stroke-width: 2; stroke: #2c5270" x1="592.031" y1="192.178" x2="571.167" y2="222.113"/>
    <polygon style="fill: #2c5270" points="566.878,228.266 568.494,217.203 571.167,222.113 576.698,222.921 "/>
    <polygon style="fill: none; fill-opacity:0; stroke-width: 2; stroke: #2c5270" points="566.878,228.266 568.494,217.203 571.167,222.113 576.698,222.921 "/>
  </g>
  <g>
    <ellipse style="fill: #9979bc" cx="558.5" cy="120" rx="11" ry="11"/>
    <ellipse style="fill: none; fill-opacity:0; stroke-width: 2; stroke: #663999" cx="558.5" cy="120" rx="11" ry="11"/>
    <text font-size="12.8" style="fill: #ffffff;text-anchor:middle;font-family:sans-serif;font-style:normal;font-weight:normal" x="558.5" y="124">
      <tspan x="558.5" y="124">N</tspan>
    </text>
  </g>
  <g>
    <line style="fill: none; fill-opacity:0; stroke-width: 2; stroke: #2c5270" x1="590.438" y1="157.754" x2="572.537" y2="136.593"/>
    <polygon style="fill: #2c5270" points="567.693,130.867 577.969,135.272 572.537,136.593 570.334,141.731 "/>
    <polygon style="fill: none; fill-opacity:0; stroke-width: 2; stroke: #2c5270" points="567.693,130.867 577.969,135.272 572.537,136.593 570.334,141.731 "/>
  </g>
  <g>
    <ellipse style="fill: #9979bc" cx="623.4" cy="104.9" rx="11" ry="11"/>
    <ellipse style="fill: none; fill-opacity:0; stroke-width: 2; stroke: #663999" cx="623.4" cy="104.9" rx="11" ry="11"/>
    <text font-size="12.8" style="fill: #ffffff;text-anchor:middle;font-family:sans-serif;font-style:normal;font-weight:normal" x="623.4" y="108.9">
      <tspan x="623.4" y="108.9">N</tspan>
    </text>
  </g>
  <g>
    <line style="fill: none; fill-opacity:0; stroke-width: 2; stroke: #2c5270" x1="610.184" y1="153.366" x2="617.686" y2="125.855"/>
    <polygon style="fill: #2c5270" points="619.659,118.619 621.852,129.582 617.686,125.855 612.204,126.951 "/>
    <polygon style="fill: none; fill-opacity:0; stroke-width: 2; stroke: #2c5270" points="619.659,118.619 621.852,129.582 617.686,125.855 612.204,126.951 "/>
  </g>
  <g>
    <line style="fill: none; fill-opacity:0; stroke-width: 2; stroke: #008cc2" x1="649.005" y1="310.799" x2="614.232" y2="204.257"/>
    <polygon style="fill: #008cc2" points="611.905,197.128 619.76,205.083 614.232,204.257 610.254,208.185 "/>
    <polygon style="fill: none; fill-opacity:0; stroke-width: 2; stroke: #008cc2" points="611.905,197.128 619.76,205.083 614.232,204.257 610.254,208.185 "/>
  </g>
</svg>
