<?xml version="1.0" encoding="UTF-8" standalone="no"?>
<!DOCTYPE svg PUBLIC "-//W3C//DTD SVG 1.0//EN" "http://www.w3.org/TR/2001/PR-SVG-20010719/DTD/svg10.dtd">
<svg width="22cm" height="7cm" viewBox="61 287 439 134" xmlns="http://www.w3.org/2000/svg" xmlns:xlink="http://www.w3.org/1999/xlink">
  <g>
    <ellipse style="fill: #f1ea92" cx="452.999" cy="328.097" rx="33.7211" ry="33.7211"/>
    <ellipse style="fill: none; fill-opacity:0; stroke-width: 2; stroke: #000000" cx="452.999" cy="328.097" rx="33.7211" ry="33.7211"/>
    <text font-size="14.6756" style="fill: #000000;text-anchor:middle;font-family:sans-serif;font-style:normal;font-weight:normal" x="452.999" y="332.683">
      <tspan x="452.999" y="332.683">Arbuz</tspan>
    </text>
  </g>
  <g>
    <ellipse style="fill: #f1ea92" cx="107.885" cy="322.371" rx="33.7211" ry="33.7211"/>
    <ellipse style="fill: none; fill-opacity:0; stroke-width: 2; stroke: #000000" cx="107.885" cy="322.371" rx="33.7211" ry="33.7211"/>
    <text font-size="14.6756" style="fill: #000000;text-anchor:middle;font-family:sans-serif;font-style:normal;font-weight:normal" x="107.885" y="326.957">
      <tspan x="107.885" y="326.957">Boing</tspan>
    </text>
  </g>
  <g>
    <path style="fill: none; fill-opacity:0; stroke-width: 2; stroke: #000000" d="M 409.073,321.33 A 1108.53,1108.53 0 0 0 142.33,318.076"/>
    <polygon style="fill: #000000" points="416.504,322.347 405.898,325.885 409.079,321.288 407.31,315.985 "/>
    <polygon style="fill: none; fill-opacity:0; stroke-width: 2; stroke: #000000" points="416.504,322.347 405.898,325.885 409.079,321.288 407.31,315.985 "/>
  </g>
  <g>
    <rect style="fill: #fafafa" x="218.124" y="306.952" width="125.45" height="76.5556"/>
    <rect style="fill: none; fill-opacity:0; stroke-width: 2; stroke: #bfbfbf" x="218.124" y="306.952" width="125.45" height="76.5556"/>
    <text font-size="14.1111" style="fill: #000000;text-anchor:start;font-family:sans-serif;font-style:normal;font-weight:normal" x="219.124" y="323.052">
      <tspan x="219.124" y="323.052">@0016</tspan>
      <tspan x="219.124" y="340.691">label:ESPIONNE</tspan>
      <tspan x="219.124" y="358.33">out:@0012</tspan>
      <tspan x="219.124" y="375.969">in:@0013</tspan>
    </text>
  </g>
  <text font-size="14.6756" style="fill: #000000;text-anchor:start;font-family:sans-serif;font-style:normal;font-weight:normal" x="239.9" y="301.3">
    <tspan x="239.9" y="301.3">ESPIONNE</tspan>
  </text>
  <g>
    <rect style="fill: #ffffff" x="62.2856" y="341.998" width="91.2" height="78.3861"/>
    <rect style="fill: none; fill-opacity:0; stroke-width: 2; stroke: #bfbfbf" x="62.2856" y="341.998" width="91.2" height="78.3861"/>
    <text font-size="14.1111" style="fill: #000000;text-anchor:start;font-family:sans-serif;font-style:normal;font-weight:normal" x="63.2856" y="359.013">
      <tspan x="63.2856" y="359.013">@0012</tspan>
      <tspan x="63.2856" y="376.652">nom : Boing</tspan>
      <tspan x="63.2856" y="394.291">[..]</tspan>
      <tspan x="63.2856" y="411.93">out:@0016</tspan>
    </text>
  </g>
  <g>
    <rect style="fill: #ffffff" x="407.076" y="343.012" width="91.85" height="76.5556"/>
    <rect style="fill: none; fill-opacity:0; stroke-width: 2; stroke: #bfbfbf" x="407.076" y="343.012" width="91.85" height="76.5556"/>
    <text font-size="14.1111" style="fill: #000000;text-anchor:start;font-family:sans-serif;font-style:normal;font-weight:normal" x="408.076" y="359.112">
      <tspan x="408.076" y="359.112">@0013</tspan>
      <tspan x="408.076" y="376.751">nom : Arbuz</tspan>
      <tspan x="408.076" y="394.39">[..]</tspan>
      <tspan x="408.076" y="412.029">in:@0016</tspan>
    </text>
  </g>
</svg>
